<svg xmlns="http://www.w3.org/2000/svg" viewBox="0 0 260 48">
  <g id="normal">
	<path d="M7.446,35.018c-1.064,0-2.021-0.177-2.943-0.562c-0.922-0.388-1.703-0.918-2.376-1.585c-0.638-0.67-1.17-1.514-1.56-2.429
		C0.177,29.492,0,28.437,0,27.311v-9.925c0-1.161,0.177-2.217,0.567-3.132c0.39-0.951,0.921-1.76,1.56-2.464
		c0.674-0.668,1.454-1.196,2.376-1.548c0.921-0.352,1.879-0.528,2.943-0.528c1.028,0,1.986,0.176,2.872,0.528
		c0.922,0.352,1.702,0.88,2.376,1.548c0.673,0.704,1.205,1.513,1.631,2.464c0.39,0.915,0.567,1.971,0.567,3.132v9.925
		c0,1.126-0.177,2.182-0.567,3.132c-0.426,0.915-0.958,1.759-1.631,2.429c-0.674,0.667-1.454,1.197-2.376,1.585
		C9.432,34.841,8.475,35.018,7.446,35.018L7.446,35.018z M1.985,27.311c0,1.795,0.497,3.202,1.454,4.224
		c0.993,0.983,2.34,1.514,4.007,1.514c1.596,0,2.908-0.53,3.936-1.514c1.028-1.021,1.524-2.429,1.524-4.224v-9.925
		c0-1.83-0.496-3.203-1.524-4.223c-1.028-0.985-2.34-1.479-3.936-1.479c-1.667,0-3.014,0.493-4.007,1.479
		c-0.958,1.02-1.454,2.393-1.454,4.223V27.311L1.985,27.311z"/>
	<path d="M20.141,0h1.985v27.593c0,0.914,0,1.688,0,2.322c0.036,0.633,0.107,1.161,0.213,1.619c0.106,0.491,0.319,0.844,0.567,1.089
		c0.284,0.282,0.674,0.425,1.207,0.425v1.97c-0.922,0-1.667-0.177-2.199-0.562c-0.531-0.388-0.921-0.881-1.206-1.551
		c-0.248-0.633-0.425-1.407-0.497-2.286c-0.07-0.881-0.07-1.901-0.07-3.026V0L20.141,0z"/>
	<path d="M32.303,22.348h3.476c1.596,0,2.908-0.492,3.936-1.478c1.028-0.985,1.524-2.217,1.524-3.73
		c0-1.795-0.496-3.132-1.524-4.082c-1.028-0.916-2.34-1.373-3.936-1.373c-1.702,0-3.014,0.458-4.007,1.373
		c-0.958,0.95-1.454,2.287-1.454,4.082v10.171c0,1.829,0.496,3.237,1.454,4.224c0.993,1.021,2.305,1.514,4.007,1.514
		c1.844,0,3.368-0.741,4.539-2.184l1.56,1.021c-0.638,0.986-1.524,1.725-2.624,2.289c-1.1,0.562-2.234,0.844-3.475,0.844
		c-1.064,0-2.057-0.177-2.943-0.527c-0.922-0.388-1.702-0.881-2.376-1.548c-0.674-0.67-1.17-1.479-1.56-2.43
		c-0.391-0.985-0.568-2.041-0.568-3.202v-9.925c0-1.125,0.177-2.146,0.568-3.097c0.39-0.95,0.886-1.759,1.56-2.428
		c0.674-0.668,1.454-1.196,2.376-1.583c0.886-0.387,1.879-0.598,2.943-0.598c1.028,0,1.985,0.211,2.872,0.598
		c0.922,0.387,1.702,0.916,2.375,1.583c0.674,0.669,1.206,1.479,1.596,2.428c0.426,0.951,0.603,1.972,0.603,3.097
		c0,0.985-0.177,1.865-0.603,2.71c-0.39,0.844-0.922,1.584-1.596,2.217c-0.673,0.633-1.454,1.125-2.375,1.478
		c-0.887,0.388-1.844,0.563-2.872,0.563h-3.476V22.348L32.303,22.348z"/>
	<path d="M55.246,30.794c-1.064,0-2.021-0.175-2.943-0.563c-0.921-0.388-1.702-0.915-2.375-1.584
		c-0.638-0.669-1.17-1.479-1.561-2.429c-0.354-0.95-0.567-2.005-0.567-3.097v-5.737c0-1.161,0.212-2.217,0.567-3.132
		c0.39-0.951,0.922-1.76,1.561-2.464c0.673-0.668,1.454-1.196,2.375-1.548c0.922-0.352,1.879-0.528,2.943-0.528
		c1.17,0,2.27,0.247,3.298,0.739c1.028,0.528,1.879,1.197,2.589,2.077c0.212-0.88,0.603-1.514,1.17-1.936
		c0.532-0.422,1.348-0.633,2.411-0.633v1.971c-0.531,0-0.957,0.14-1.206,0.387c-0.248,0.282-0.461,0.633-0.567,1.092
		c-0.106,0.492-0.177,1.055-0.213,1.724c0,0.668,0,1.443,0,2.252v5.737c0,1.126-0.213,2.146-0.603,3.097
		c-0.39,0.95-0.958,1.76-1.631,2.429s-1.454,1.196-2.34,1.584C57.231,30.619,56.274,30.794,55.246,30.794L55.246,30.794z
		 M49.785,40.227c0,1.582,0.532,2.922,1.561,3.941c1.028,1.021,2.34,1.548,3.9,1.548c1.702,0,3.049-0.527,4.007-1.513
		c0.993-1.021,1.489-2.429,1.489-4.224c0-1.477-0.497-2.711-1.489-3.73c-0.958-0.984-2.305-1.477-4.007-1.477V32.8
		c1.064,0,2.057,0.177,2.979,0.599c0.886,0.388,1.701,0.915,2.34,1.585c0.674,0.667,1.206,1.407,1.561,2.285
		c0.39,0.847,0.603,1.762,0.603,2.711c0,1.128-0.213,2.183-0.603,3.098c-0.354,0.949-0.887,1.761-1.561,2.462
		c-0.639,0.67-1.454,1.197-2.34,1.585c-0.922,0.388-1.915,0.564-2.979,0.564c-1.028,0-1.985-0.211-2.872-0.599
		s-1.667-0.952-2.341-1.619c-0.709-0.67-1.241-1.444-1.631-2.359c-0.39-0.878-0.603-1.864-0.603-2.885H49.785L49.785,40.227z
		 M49.785,23.122c0,1.76,0.497,3.168,1.489,4.188c0.957,0.984,2.305,1.513,3.972,1.513c1.596,0,2.908-0.528,3.936-1.513
		c1.028-1.021,1.561-2.428,1.561-4.188v-5.737c0-1.83-0.532-3.203-1.561-4.223c-1.028-0.985-2.34-1.479-3.936-1.479
		c-1.667,0-3.015,0.493-3.972,1.479c-0.993,1.02-1.489,2.393-1.489,4.223V23.122L49.785,23.122z"/>
	<path d="M82.833,10.804c1.064-0.563,2.234-0.844,3.476-0.844c1.028,0,1.985,0.176,2.908,0.528c0.886,0.352,1.667,0.88,2.34,1.583
		c0.674,0.669,1.206,1.479,1.632,2.429c0.39,0.915,0.567,1.971,0.567,3.132v9.679c0,1.126-0.177,2.182-0.567,3.132
		c-0.355,0.915-0.887,1.759-1.561,2.429c-0.639,0.667-1.454,1.197-2.341,1.585c-0.921,0.385-1.914,0.562-2.978,0.562
		c-1.028,0-1.986-0.177-2.873-0.562c-0.886-0.388-1.667-0.918-2.375-1.585c-0.674-0.67-1.206-1.514-1.596-2.429
		c-0.391-0.95-0.604-2.006-0.604-3.132V0h1.986v27.311c0,1.795,0.532,3.202,1.56,4.224c0.993,0.983,2.305,1.514,3.901,1.514
		c1.702,0,3.014-0.53,4.006-1.514c0.994-1.021,1.454-2.429,1.454-4.224v-9.679c0-1.795-0.496-3.203-1.524-4.223
		c-1.028-0.986-2.341-1.479-3.936-1.479c-0.638,0-1.277,0.105-1.879,0.281c-0.603,0.176-1.135,0.423-1.596,0.774V10.804
		L82.833,10.804z"/>
	<path d="M99.003,9.96h1.986v2.534c1.241-1.337,2.659-2.217,4.255-2.604c1.595-0.387,3.155-0.176,4.68,0.599v2.323
		c-0.887-0.669-1.879-1.091-2.908-1.232s-2.021,0-2.908,0.387c-0.886,0.423-1.631,1.056-2.233,1.936
		c-0.603,0.915-0.887,2.006-0.887,3.344v17.527h-1.986V9.96L99.003,9.96z"/>
	<path d="M116.627,22.348h3.475c1.596,0,2.908-0.492,3.936-1.478c1.028-0.985,1.525-2.217,1.525-3.73
		c0-1.795-0.497-3.132-1.525-4.082c-1.028-0.916-2.34-1.373-3.936-1.373c-1.667,0-3.014,0.458-4.007,1.373
		c-0.958,0.95-1.454,2.287-1.454,4.082v10.171c0,1.829,0.497,3.237,1.454,4.224c0.993,1.021,2.34,1.514,4.007,1.514
		c1.879,0,3.369-0.741,4.539-2.184l1.596,1.021c-0.674,0.986-1.561,1.725-2.66,2.289c-1.099,0.562-2.234,0.844-3.475,0.844
		c-1.064,0-2.021-0.177-2.943-0.527c-0.922-0.388-1.702-0.881-2.375-1.548c-0.638-0.67-1.17-1.479-1.561-2.43
		c-0.39-0.985-0.567-2.041-0.567-3.202v-9.925c0-1.125,0.177-2.146,0.567-3.097c0.39-0.95,0.922-1.759,1.561-2.428
		c0.674-0.668,1.454-1.196,2.375-1.583c0.922-0.387,1.879-0.598,2.943-0.598c1.028,0,1.986,0.211,2.872,0.598
		c0.922,0.387,1.702,0.916,2.376,1.583c0.674,0.669,1.206,1.479,1.631,2.428c0.39,0.951,0.567,1.972,0.567,3.097
		c0,0.985-0.177,1.865-0.567,2.71c-0.425,0.844-0.957,1.584-1.631,2.217s-1.454,1.125-2.376,1.478
		c-0.886,0.388-1.844,0.563-2.872,0.563h-3.475V22.348L116.627,22.348z"/>
	<path d="M139.144,20.412c0.993,0.141,1.915,0.422,2.802,0.81c0.886,0.387,1.632,0.88,2.305,1.478
		c0.639,0.599,1.135,1.303,1.489,2.077c0.391,0.774,0.567,1.619,0.567,2.534c0,1.126-0.212,2.182-0.603,3.132
		c-0.39,0.915-0.922,1.759-1.631,2.429c-0.675,0.667-1.454,1.197-2.341,1.585c-0.887,0.385-1.879,0.562-2.872,0.562
		c-1.063,0-2.057-0.177-2.979-0.599c-0.923-0.388-1.703-0.915-2.341-1.619c-0.674-0.667-1.205-1.442-1.595-2.357
		c-0.354-0.879-0.568-1.83-0.568-2.886h1.985c0,1.619,0.497,2.921,1.49,3.941c0.957,1.02,2.305,1.55,4.007,1.55
		c1.56,0,2.872-0.53,3.9-1.514c1.028-1.021,1.561-2.429,1.561-4.224c0-1.408-0.532-2.534-1.561-3.344
		c-1.028-0.81-2.341-1.337-3.9-1.619c-0.923-0.105-1.738-0.352-2.518-0.704c-0.78-0.352-1.453-0.774-2.057-1.302
		c-0.568-0.493-1.029-1.092-1.384-1.76c-0.354-0.669-0.531-1.373-0.531-2.183c0-0.985,0.177-1.9,0.496-2.745
		c0.355-0.81,0.815-1.513,1.419-2.111c0.567-0.563,1.276-1.021,2.057-1.337c0.779-0.352,1.595-0.528,2.518-0.528
		c1.383,0,2.624,0.352,3.759,1.021c1.134,0.704,2.021,1.584,2.624,2.675l-1.596,1.056c-0.425-0.844-1.028-1.513-1.88-2.006
		c-0.815-0.492-1.809-0.739-2.907-0.739c-1.276,0-2.34,0.422-3.191,1.302c-0.851,0.845-1.312,2.006-1.312,3.414
		c0,0.528,0.142,1.021,0.425,1.479c0.248,0.422,0.603,0.844,1.063,1.161c0.426,0.352,0.958,0.668,1.525,0.88
		C137.974,20.166,138.541,20.307,139.144,20.412L139.144,20.412z"/>
	<path d="M151.023,0h1.985v27.593c0,0.914,0,1.688,0.035,2.322c0,0.633,0.071,1.161,0.178,1.619
		c0.142,0.491,0.319,0.844,0.567,1.089c0.283,0.282,0.674,0.425,1.205,0.425v1.97c-0.922,0-1.667-0.177-2.197-0.562
		c-0.532-0.388-0.923-0.881-1.172-1.551c-0.283-0.633-0.425-1.407-0.495-2.286c-0.071-0.881-0.106-1.901-0.106-3.026V0L151.023,0z"
		/>
	<path d="M169.994,23.404c-0.462-0.317-0.992-0.599-1.596-0.774c-0.568-0.176-1.206-0.282-1.879-0.282
		c-1.597,0-2.908,0.458-3.937,1.373c-1.029,0.915-1.524,2.112-1.524,3.59c0,1.795,0.495,3.202,1.524,4.224
		c1.028,0.983,2.34,1.514,3.937,1.514c1.701,0,3.013-0.53,4.007-1.514c0.957-1.021,1.453-2.429,1.453-4.224v-9.925
		c0-1.83-0.496-3.203-1.453-4.223c-0.994-0.985-2.306-1.479-4.007-1.479c-1.88,0-3.404,0.739-4.574,2.182l-1.597-0.95
		c0.604-0.985,1.49-1.76,2.624-2.358c1.135-0.563,2.34-0.879,3.547-0.879c1.063,0,2.057,0.211,2.941,0.563
		c0.923,0.352,1.703,0.88,2.377,1.548c0.674,0.704,1.17,1.513,1.561,2.464c0.39,0.915,0.567,1.971,0.567,3.132v9.925
		c0,0.845,0.035,1.583,0.035,2.253c0,0.668,0.07,1.23,0.213,1.724c0.106,0.458,0.318,0.846,0.567,1.091
		c0.283,0.282,0.674,0.422,1.17,0.422v1.973c-1.064,0-1.845-0.248-2.375-0.704c-0.532-0.493-0.923-1.126-1.136-1.936
		c-0.674,0.878-1.524,1.582-2.554,2.109c-1.027,0.53-2.126,0.775-3.367,0.775c-1.029,0-1.987-0.177-2.873-0.562
		c-0.886-0.388-1.701-0.918-2.376-1.585c-0.673-0.67-1.205-1.514-1.596-2.429c-0.39-0.95-0.604-2.006-0.604-3.132
		c0-0.95,0.214-1.83,0.604-2.675c0.391-0.845,0.923-1.584,1.596-2.217c0.675-0.633,1.49-1.126,2.376-1.513
		c0.886-0.352,1.844-0.528,2.873-0.528c1.276,0,2.411,0.282,3.475,0.845V23.404L169.994,23.404z"/>
	<polygon points="180.029,9.96 185.49,32.307 190.986,9.96 193.043,9.96 186.979,34.772 184.001,34.772 177.937,9.96 180.029,9.96
		"/>
	<path d="M200.1,30.021c0.354,0.773,0.887,1.372,1.56,1.864c0.674,0.493,1.419,0.844,2.234,1.058
		c0.674,0.174,1.348,0.174,2.093,0.034v2.007c-0.923,0.105-1.881,0.034-2.803-0.211c-1.063-0.282-1.985-0.775-2.836-1.445
		c-0.852-0.667-1.524-1.477-2.057-2.463c-0.497-1.021-0.745-2.182-0.745-3.554v-15.38h-1.985V9.96h1.985V0h1.985v9.96h4.468v1.971
		h-4.468v15.38C199.531,28.401,199.709,29.281,200.1,30.021L200.1,30.021z"/>
	<path d="M216.481,20.412c0.993,0.141,1.915,0.422,2.802,0.81c0.852,0.387,1.631,0.88,2.269,1.478
		c0.64,0.599,1.17,1.303,1.526,2.077c0.354,0.774,0.53,1.619,0.53,2.534c0,1.126-0.177,2.182-0.566,3.132
		c-0.426,0.915-0.958,1.759-1.631,2.429c-0.675,0.667-1.454,1.197-2.377,1.585c-0.887,0.385-1.843,0.562-2.872,0.562
		c-1.063,0-2.057-0.177-2.943-0.599c-0.921-0.388-1.702-0.915-2.375-1.619c-0.674-0.667-1.17-1.442-1.561-2.357
		c-0.39-0.879-0.567-1.83-0.567-2.886h1.985c0,1.619,0.497,2.921,1.454,3.941c0.994,1.02,2.305,1.55,4.007,1.55
		c1.596,0,2.908-0.53,3.937-1.514c1.028-1.021,1.524-2.429,1.524-4.224c0-1.408-0.496-2.534-1.524-3.344
		c-1.028-0.81-2.341-1.337-3.937-1.619c-0.887-0.105-1.737-0.352-2.518-0.704s-1.453-0.774-2.021-1.302
		c-0.566-0.493-1.063-1.092-1.383-1.76c-0.354-0.669-0.531-1.373-0.531-2.183c0-0.985,0.177-1.9,0.497-2.745
		c0.318-0.81,0.779-1.513,1.382-2.111c0.604-0.563,1.276-1.021,2.057-1.337c0.78-0.352,1.631-0.528,2.518-0.528
		c1.384,0,2.66,0.352,3.795,1.021c1.099,0.704,1.985,1.584,2.624,2.675l-1.596,1.056c-0.426-0.844-1.064-1.513-1.88-2.006
		c-0.851-0.492-1.808-0.739-2.943-0.739c-1.241,0-2.304,0.422-3.19,1.302c-0.852,0.845-1.277,2.006-1.277,3.414
		c0,0.528,0.143,1.021,0.391,1.479c0.283,0.422,0.639,0.844,1.064,1.161c0.46,0.352,0.956,0.668,1.56,0.88
		C215.275,20.166,215.879,20.307,216.481,20.412L216.481,20.412z"/>
	<path d="M231.587,22.348h3.476c1.561,0,2.872-0.492,3.9-1.478c1.028-0.985,1.561-2.217,1.561-3.73c0-1.795-0.532-3.132-1.561-4.082
		c-1.028-0.916-2.34-1.373-3.9-1.373c-1.702,0-3.05,0.458-4.008,1.373c-0.992,0.95-1.488,2.287-1.488,4.082v10.171
		c0,1.829,0.496,3.237,1.488,4.224c0.958,1.021,2.306,1.514,4.008,1.514c1.844,0,3.334-0.741,4.504-2.184l1.595,1.021
		c-0.673,0.986-1.524,1.725-2.624,2.289c-1.099,0.562-2.269,0.844-3.475,0.844c-1.064,0-2.057-0.177-2.979-0.527
		c-0.887-0.388-1.702-0.881-2.34-1.548c-0.675-0.67-1.205-1.479-1.562-2.43c-0.39-0.985-0.602-2.041-0.602-3.202v-9.925
		c0-1.125,0.212-2.146,0.602-3.097c0.356-0.95,0.887-1.759,1.562-2.428c0.638-0.668,1.453-1.196,2.34-1.583
		c0.922-0.387,1.914-0.598,2.979-0.598c1.028,0,1.985,0.211,2.872,0.598s1.667,0.916,2.376,1.583
		c0.675,0.669,1.205,1.479,1.596,2.428c0.39,0.951,0.603,1.972,0.603,3.097c0,0.985-0.213,1.865-0.603,2.71
		c-0.391,0.844-0.921,1.584-1.596,2.217c-0.709,0.633-1.489,1.125-2.376,1.478c-0.887,0.388-1.844,0.563-2.872,0.563h-3.476V22.348
		L231.587,22.348z"/>
	<polygon points="247.19,9.96 252.651,32.307 258.111,9.96 260.203,9.96 254.14,34.772 251.161,34.772 245.098,9.96 247.19,9.96
		"/>
  </g>
  <style>
g {
	fill:#c399cc;
	}
g:target {
	fill:#222;
	}
</style>
</svg>
