<svg xmlns="http://www.w3.org/2000/svg" font-family="Helvetica Neue, sans-serif" width="760" height="186"><g transform="translate(70, 0)"><rect fill="#c44547" width="0" y="147" height="14"><title>0</title></rect><rect fill="#c44547" width="62" y="101" height="14"><title>7</title></rect><rect fill="#c44547" width="160" y="55" height="14"><title>18</title></rect><rect fill="#c44547" width="640" y="9" height="14"><title>72</title></rect><text font-size="13" fill="#333" x="0" y="147" dx="7" dy="0.9em"></text><text font-size="13" fill="#333" x="62" y="101" dx="7" dy="0.9em">7%</text><text font-size="13" fill="#333" x="160" y="55" dx="7" dy="0.9em">19%</text><text font-size="13" fill="#333" x="640" y="9" dx="7" dy="0.9em">74%</text><rect fill="#799ac1" width="5" y="165" height="14"><title>7</title></rect><rect fill="#799ac1" width="156" y="119" height="14"><title>211</title></rect><rect fill="#799ac1" width="176" y="73" height="14"><title>239</title></rect><rect fill="#799ac1" width="525" y="27" height="14"><title>712</title></rect><text font-size="13" fill="#333" x="5" y="165" dx="7" dy="0.9em">1%</text><text font-size="13" fill="#333" x="156" y="119" dx="7" dy="0.9em">18%</text><text font-size="13" fill="#333" x="176" y="73" dx="7" dy="0.9em">20%</text><text font-size="13" fill="#333" x="525" y="27" dx="7" dy="0.9em">61%</text><g fill="none" font-size="10" font-family="sans-serif" text-anchor="end"><path class="domain" stroke="#ccc" d="M0,186.5H0.5V0.5H0"></path><g class="tick" opacity="1" transform="translate(0,161.6769230769231)"><line stroke="#000" x2="0" y1="0.5" y2="0.5"></line><text fill="#333" x="-3" y="0.5" dy="0.32em" font-size="13">Other</text></g><g class="tick" opacity="1" transform="translate(0,115.8923076923077)"><line stroke="#000" x2="0" y1="0.5" y2="0.5"></line><text fill="#333" x="-3" y="0.5" dy="0.32em" font-size="13">Tabs</text></g><g class="tick" opacity="1" transform="translate(0,70.1076923076923)"><line stroke="#000" x2="0" y1="0.5" y2="0.5"></line><text fill="#333" x="-3" y="0.5" dy="0.32em" font-size="13">4 spaces</text></g><g class="tick" opacity="1" transform="translate(0,24.323076923076925)"><line stroke="#000" x2="0" y1="0.5" y2="0.5"></line><text fill="#333" x="-3" y="0.5" dy="0.32em" font-size="13">2 spaces</text></g></g><g text-anchor="end"><g transform="translate(50, 165)"><rect x="626" width="14" height="14" fill="#799ac1"></rect><text font-size="13" fill="#333" x="622" y="7" dy="0.32em">Survey</text></g><g transform="translate(50, 147)"><rect x="626" width="14" height="14" fill="#c44547"></rect><text font-size="13" fill="#333" x="622" y="7" dy="0.32em">Top npm</text></g></g></g></svg>
