<svg xmlns="http://www.w3.org/2000/svg" font-family="Helvetica Neue, sans-serif" width="760" height="278"><g transform="translate(70, 0)"><rect fill="#c44547" width="192" y="239" height="14"><title>18</title></rect><rect fill="#c44547" width="32" y="193" height="14"><title>3</title></rect><rect fill="#c44547" width="75" y="147" height="14"><title>7</title></rect><rect fill="#c44547" width="85" y="101" height="14"><title>8</title></rect><rect fill="#c44547" width="11" y="55" height="14"><title>1</title></rect><rect fill="#c44547" width="640" y="9" height="14"><title>60</title></rect><text font-size="13" fill="#333" x="192" y="239" dx="7" dy="0.9em">19%</text><text font-size="13" fill="#333" x="32" y="193" dx="7" dy="0.9em">3%</text><text font-size="13" fill="#333" x="75" y="147" dx="7" dy="0.9em">7%</text><text font-size="13" fill="#333" x="85" y="101" dx="7" dy="0.9em">8%</text><text font-size="13" fill="#333" x="11" y="55" dx="7" dy="0.9em">1%</text><text font-size="13" fill="#333" x="640" y="9" dx="7" dy="0.9em">62%</text><rect fill="#799ac1" width="103" y="257" height="14"><title>116</title></rect><rect fill="#799ac1" width="14" y="211" height="14"><title>16</title></rect><rect fill="#799ac1" width="245" y="165" height="14"><title>277</title></rect><rect fill="#799ac1" width="2" y="119" height="14"><title>2</title></rect><rect fill="#799ac1" width="369" y="73" height="14"><title>417</title></rect><rect fill="#799ac1" width="302" y="27" height="14"><title>341</title></rect><text font-size="13" fill="#333" x="103" y="257" dx="7" dy="0.9em">10%</text><text font-size="13" fill="#333" x="14" y="211" dx="7" dy="0.9em">1%</text><text font-size="13" fill="#333" x="245" y="165" dx="7" dy="0.9em">24%</text><text font-size="13" fill="#333" x="2" y="119" dx="7" dy="0.9em"></text><text font-size="13" fill="#333" x="369" y="73" dx="7" dy="0.9em">36%</text><text font-size="13" fill="#333" x="302" y="27" dx="7" dy="0.9em">29%</text><g fill="none" font-size="10" font-family="sans-serif" text-anchor="end"><path class="domain" stroke="#ccc" d="M0,278.5H0.5V0.5H0"></path><g class="tick" opacity="1" transform="translate(0,253.63917525773198)"><line stroke="#000" x2="0" y1="0.5" y2="0.5"></line><text fill="#333" x="-3" y="0.5" dy="0.32em" font-size="13">Other</text></g><g class="tick" opacity="1" transform="translate(0,207.7835051546392)"><line stroke="#000" x2="0" y1="0.5" y2="0.5"></line><text fill="#333" x="-3" y="0.5" dy="0.32em" font-size="13">xo</text></g><g class="tick" opacity="1" transform="translate(0,161.9278350515464)"><line stroke="#000" x2="0" y1="0.5" y2="0.5"></line><text fill="#333" x="-3" y="0.5" dy="0.32em" font-size="13">Standard</text></g><g class="tick" opacity="1" transform="translate(0,116.0721649484536)"><line stroke="#000" x2="0" y1="0.5" y2="0.5"></line><text fill="#333" x="-3" y="0.5" dy="0.32em" font-size="13">ESLint</text></g><g class="tick" opacity="1" transform="translate(0,70.21649484536083)"><line stroke="#000" x2="0" y1="0.5" y2="0.5"></line><text fill="#333" x="-3" y="0.5" dy="0.32em" font-size="13">AirBnb</text></g><g class="tick" opacity="1" transform="translate(0,24.360824742268044)"><line stroke="#000" x2="0" y1="0.5" y2="0.5"></line><text fill="#333" x="-3" y="0.5" dy="0.32em" font-size="13">No</text></g></g><g text-anchor="end"><g transform="translate(50, 257)"><rect x="626" width="14" height="14" fill="#799ac1"></rect><text font-size="13" fill="#333" x="622" y="7" dy="0.32em">Survey</text></g><g transform="translate(50, 239)"><rect x="626" width="14" height="14" fill="#c44547"></rect><text font-size="13" fill="#333" x="622" y="7" dy="0.32em">Top npm</text></g></g></g></svg>
