<svg xmlns="http://www.w3.org/2000/svg" width="760" height="416" font-family="Helvetica Neue, sans-serif"><path fill="#c44547" d="M70 377h8v14h-8z"><title>1</title></path><path fill="#c44547" d="M70 331h33v14H70z"><title>4</title></path><path fill="#c44547" d="M70 285v14z"><title>0</title></path><path fill="#c44547" d="M70 239h25v14H70z"><title>3</title></path><path fill="#c44547" d="M70 193v14z"><title>0</title></path><path fill="#c44547" d="M70 147h124v14H70z"><title>15</title></path><path fill="#c44547" d="M70 101h41v14H70z"><title>5</title></path><path fill="#c44547" d="M70 55h388v14H70z"><title>47</title></path><path fill="#c44547" d="M70 9h231v14H70z"><title>28</title></path><text x="8" y="377" fill="#333" dx="7" dy=".9em" font-size="13" transform="translate(70)">1%</text><text x="33" y="331" fill="#333" dx="7" dy=".9em" font-size="13" transform="translate(70)">4%</text><text x="25" y="239" fill="#333" dx="7" dy=".9em" font-size="13" transform="translate(70)">3%</text><text x="124" y="147" fill="#333" dx="7" dy=".9em" font-size="13" transform="translate(70)">15%</text><text x="41" y="101" fill="#333" dx="7" dy=".9em" font-size="13" transform="translate(70)">5%</text><text x="388" y="55" fill="#333" dx="7" dy=".9em" font-size="13" transform="translate(70)">48%</text><text x="231" y="9" fill="#333" dx="7" dy=".9em" font-size="13" transform="translate(70)">29%</text><path fill="#799ac1" d="M70 395h16v14H70z"><title>23</title></path><path fill="#799ac1" d="M70 349h11v14H70z"><title>16</title></path><path fill="#799ac1" d="M70 303h14v14H70z"><title>20</title></path><path fill="#799ac1" d="M70 257h58v14H70z"><title>85</title></path><path fill="#799ac1" d="M70 211h34v14H70z"><title>50</title></path><path fill="#799ac1" d="M70 165h76v14H70z"><title>111</title></path><path fill="#799ac1" d="M70 119h26v14H70z"><title>38</title></path><path fill="#799ac1" d="M70 73h640v14H70z"><title>935</title></path><path fill="#799ac1" d="M70 27h55v14H70z"><title>80</title></path><text x="16" y="395" fill="#333" dx="7" dy=".9em" font-size="13" transform="translate(70)">2%</text><text x="11" y="349" fill="#333" dx="7" dy=".9em" font-size="13" transform="translate(70)">1%</text><text x="14" y="303" fill="#333" dx="7" dy=".9em" font-size="13" transform="translate(70)">2%</text><text x="58" y="257" fill="#333" dx="7" dy=".9em" font-size="13" transform="translate(70)">7%</text><text x="34" y="211" fill="#333" dx="7" dy=".9em" font-size="13" transform="translate(70)">4%</text><text x="76" y="165" fill="#333" dx="7" dy=".9em" font-size="13" transform="translate(70)">9%</text><text x="26" y="119" fill="#333" dx="7" dy=".9em" font-size="13" transform="translate(70)">3%</text><text x="640" y="73" fill="#333" dx="7" dy=".9em" font-size="13" transform="translate(70)">80%</text><text x="55" y="27" fill="#333" dx="7" dy=".9em" font-size="13" transform="translate(70)">7%</text><g fill="none" font-family="sans-serif" font-size="10" text-anchor="end"><path stroke="#ccc" d="M70 416.5h.5V.5H70" class="domain"/><g class="tick"><path stroke="#000" d="M70 392.114h0"/><text x="-3" y=".5" fill="#333" dy=".32em" font-size="13" transform="translate(70 391.614)">Other</text></g><g class="tick"><path stroke="#000" d="M70 346.21h0"/><text x="-3" y=".5" fill="#333" dy=".32em" font-size="13" transform="translate(70 345.71)">xo</text></g><g class="tick"><path stroke="#000" d="M70 300.307h0"/><text x="-3" y=".5" fill="#333" dy=".32em" font-size="13" transform="translate(70 299.807)">TSLint</text></g><g class="tick"><path stroke="#000" d="M70 254.403h0"/><text x="-3" y=".5" fill="#333" dy=".32em" font-size="13" transform="translate(70 253.903)">Standard</text></g><g class="tick"><path stroke="#000" d="M70 208.5h0"/><text x="-3" y=".5" fill="#333" dy=".32em" font-size="13" transform="translate(70 208)">Prettier</text></g><g class="tick"><path stroke="#000" d="M70 162.597h0"/><text x="-3" y=".5" fill="#333" dy=".32em" font-size="13" transform="translate(70 162.097)">JSHint</text></g><g class="tick"><path stroke="#000" d="M70 116.693h0"/><text x="-3" y=".5" fill="#333" dy=".32em" font-size="13" transform="translate(70 116.193)">JSCS</text></g><g class="tick"><path stroke="#000" d="M70 70.79h0"/><text x="-3" y=".5" fill="#333" dy=".32em" font-size="13" transform="translate(70 70.29)">ESLint</text></g><g class="tick"><path stroke="#000" d="M70 24.886h0"/><text x="-3" y=".5" fill="#333" dy=".32em" font-size="13" transform="translate(70 24.386)">No</text></g></g><g text-anchor="end"><path fill="#799ac1" d="M746 395h14v14h-14z"/><text x="622" y="7" fill="#333" dy=".32em" font-size="13" transform="translate(120 395)">Survey</text><g><path fill="#c44547" d="M746 377h14v14h-14z"/><text x="622" y="7" fill="#333" dy=".32em" font-size="13" transform="translate(120 377)">Top npm</text></g></g></svg>