<svg xmlns="http://www.w3.org/2000/svg" width="760" height="186" font-family="Helvetica Neue, sans-serif"><path fill="#c44547" d="M70 147v14z"><title>0</title></path><path fill="#c44547" d="M70 101h62v14H70z"><title>7</title></path><path fill="#c44547" d="M70 55h160v14H70z"><title>18</title></path><path fill="#c44547" d="M70 9h640v14H70z"><title>72</title></path><text x="62" y="101" fill="#333" dx="7" dy=".9em" font-size="13" transform="translate(70)">7%</text><text x="160" y="55" fill="#333" dx="7" dy=".9em" font-size="13" transform="translate(70)">19%</text><text x="640" y="9" fill="#333" dx="7" dy=".9em" font-size="13" transform="translate(70)">74%</text><path fill="#799ac1" d="M70 165h5v14h-5z"><title>7</title></path><path fill="#799ac1" d="M70 119h156v14H70z"><title>211</title></path><path fill="#799ac1" d="M70 73h176v14H70z"><title>239</title></path><path fill="#799ac1" d="M70 27h525v14H70z"><title>712</title></path><text x="5" y="165" fill="#333" dx="7" dy=".9em" font-size="13" transform="translate(70)">1%</text><text x="156" y="119" fill="#333" dx="7" dy=".9em" font-size="13" transform="translate(70)">18%</text><text x="176" y="73" fill="#333" dx="7" dy=".9em" font-size="13" transform="translate(70)">20%</text><text x="525" y="27" fill="#333" dx="7" dy=".9em" font-size="13" transform="translate(70)">61%</text><g fill="none" font-family="sans-serif" font-size="10" text-anchor="end"><path stroke="#ccc" d="M70 186.5h.5V.5H70" class="domain"/><g class="tick"><path stroke="#000" d="M70 162.177h0"/><text x="-3" y=".5" fill="#333" dy=".32em" font-size="13" transform="translate(70 161.677)">Other</text></g><g class="tick"><path stroke="#000" d="M70 116.392h0"/><text x="-3" y=".5" fill="#333" dy=".32em" font-size="13" transform="translate(70 115.892)">Tabs</text></g><g class="tick"><path stroke="#000" d="M70 70.608h0"/><text x="-3" y=".5" fill="#333" dy=".32em" font-size="13" transform="translate(70 70.108)">4 spaces</text></g><g class="tick"><path stroke="#000" d="M70 24.823h0"/><text x="-3" y=".5" fill="#333" dy=".32em" font-size="13" transform="translate(70 24.323)">2 spaces</text></g></g><g text-anchor="end"><path fill="#799ac1" d="M746 165h14v14h-14z"/><text x="622" y="7" fill="#333" dy=".32em" font-size="13" transform="translate(120 165)">Survey</text><g><path fill="#c44547" d="M746 147h14v14h-14z"/><text x="622" y="7" fill="#333" dy=".32em" font-size="13" transform="translate(120 147)">Top npm</text></g></g></svg>