<svg xmlns="http://www.w3.org/2000/svg" width="760" height="278" font-family="Helvetica Neue, sans-serif"><path fill="#c44547" d="M70 239h192v14H70z"><title>18</title></path><path fill="#c44547" d="M70 193h32v14H70z"><title>3</title></path><path fill="#c44547" d="M70 147h75v14H70z"><title>7</title></path><path fill="#c44547" d="M70 101h85v14H70z"><title>8</title></path><path fill="#c44547" d="M70 55h11v14H70z"><title>1</title></path><path fill="#c44547" d="M70 9h640v14H70z"><title>60</title></path><text x="192" y="239" fill="#333" dx="7" dy=".9em" font-size="13" transform="translate(70)">19%</text><text x="32" y="193" fill="#333" dx="7" dy=".9em" font-size="13" transform="translate(70)">3%</text><text x="75" y="147" fill="#333" dx="7" dy=".9em" font-size="13" transform="translate(70)">7%</text><text x="85" y="101" fill="#333" dx="7" dy=".9em" font-size="13" transform="translate(70)">8%</text><text x="11" y="55" fill="#333" dx="7" dy=".9em" font-size="13" transform="translate(70)">1%</text><text x="640" y="9" fill="#333" dx="7" dy=".9em" font-size="13" transform="translate(70)">62%</text><path fill="#799ac1" d="M70 257h103v14H70z"><title>116</title></path><path fill="#799ac1" d="M70 211h14v14H70z"><title>16</title></path><path fill="#799ac1" d="M70 165h245v14H70z"><title>277</title></path><path fill="#799ac1" d="M70 119h2v14h-2z"><title>2</title></path><path fill="#799ac1" d="M70 73h369v14H70z"><title>417</title></path><path fill="#799ac1" d="M70 27h302v14H70z"><title>341</title></path><text x="103" y="257" fill="#333" dx="7" dy=".9em" font-size="13" transform="translate(70)">10%</text><text x="14" y="211" fill="#333" dx="7" dy=".9em" font-size="13" transform="translate(70)">1%</text><text x="245" y="165" fill="#333" dx="7" dy=".9em" font-size="13" transform="translate(70)">24%</text><text x="369" y="73" fill="#333" dx="7" dy=".9em" font-size="13" transform="translate(70)">36%</text><text x="302" y="27" fill="#333" dx="7" dy=".9em" font-size="13" transform="translate(70)">29%</text><g fill="none" font-family="sans-serif" font-size="10" text-anchor="end"><path stroke="#ccc" d="M70 278.5h.5V.5H70" class="domain"/><g class="tick"><path stroke="#000" d="M70 254.14h0"/><text x="-3" y=".5" fill="#333" dy=".32em" font-size="13" transform="translate(70 253.64)">Other</text></g><g class="tick"><path stroke="#000" d="M70 208.284h0"/><text x="-3" y=".5" fill="#333" dy=".32em" font-size="13" transform="translate(70 207.784)">xo</text></g><g class="tick"><path stroke="#000" d="M70 162.428h0"/><text x="-3" y=".5" fill="#333" dy=".32em" font-size="13" transform="translate(70 161.928)">Standard</text></g><g class="tick"><path stroke="#000" d="M70 116.572h0"/><text x="-3" y=".5" fill="#333" dy=".32em" font-size="13" transform="translate(70 116.072)">ESLint</text></g><g class="tick"><path stroke="#000" d="M70 70.716h0"/><text x="-3" y=".5" fill="#333" dy=".32em" font-size="13" transform="translate(70 70.216)">AirBnb</text></g><g class="tick"><path stroke="#000" d="M70 24.86h0"/><text x="-3" y=".5" fill="#333" dy=".32em" font-size="13" transform="translate(70 24.36)">No</text></g></g><g text-anchor="end"><path fill="#799ac1" d="M746 257h14v14h-14z"/><text x="622" y="7" fill="#333" dy=".32em" font-size="13" transform="translate(120 257)">Survey</text><g><path fill="#c44547" d="M746 239h14v14h-14z"/><text x="622" y="7" fill="#333" dy=".32em" font-size="13" transform="translate(120 239)">Top npm</text></g></g></svg>