<svg xmlns="http://www.w3.org/2000/svg" width="760" height="94" font-family="Helvetica Neue, sans-serif"><path fill="#c44547" d="M70 55h108v14H70z"><title>14</title></path><path fill="#c44547" d="M70 9h640v14H70z"><title>83</title></path><text x="108" y="55" fill="#333" dx="7" dy=".9em" font-size="13" transform="translate(70)">14%</text><text x="640" y="9" fill="#333" dx="7" dy=".9em" font-size="13" transform="translate(70)">86%</text><path fill="#799ac1" d="M70 73h178v14H70z"><title>278</title></path><path fill="#799ac1" d="M70 27h570v14H70z"><title>891</title></path><text x="178" y="73" fill="#333" dx="7" dy=".9em" font-size="13" transform="translate(70)">24%</text><text x="570" y="27" fill="#333" dx="7" dy=".9em" font-size="13" transform="translate(70)">76%</text><g fill="none" font-family="sans-serif" font-size="10" text-anchor="end"><path stroke="#ccc" d="M70 94.5h.5V.5H70" class="domain"/><g class="tick"><path stroke="#000" d="M70 70.288h0"/><text x="-3" y=".5" fill="#333" dy=".32em" font-size="13" transform="translate(70 69.788)">No</text></g><g class="tick"><path stroke="#000" d="M70 24.712h0"/><text x="-3" y=".5" fill="#333" dy=".32em" font-size="13" transform="translate(70 24.212)">Yes</text></g></g><g text-anchor="end"><path fill="#799ac1" d="M746 73h14v14h-14z"/><text x="622" y="7" fill="#333" dy=".32em" font-size="13" transform="translate(120 73)">Survey</text><g><path fill="#c44547" d="M746 55h14v14h-14z"/><text x="622" y="7" fill="#333" dy=".32em" font-size="13" transform="translate(120 55)">Top npm</text></g></g></svg>