<svg xmlns="http://www.w3.org/2000/svg" viewBox="0 0 260 48"><path id="normal" d="M7.446 35.018c-1.064 0-2.02-.177-2.943-.562a7.412 7.412 0 0 1-2.376-1.585c-.638-.67-1.17-1.513-1.56-2.428-.39-.95-.567-2.005-.567-3.13v-9.926c0-1.16.177-2.217.567-3.132.39-.95.92-1.76 1.56-2.464a6.773 6.773 0 0 1 2.376-1.548 8.083 8.083 0 0 1 2.943-.528 7.71 7.71 0 0 1 2.872.528c.922.352 1.702.88 2.376 1.548a8.541 8.541 0 0 1 1.63 2.464c.39.915.568 1.97.568 3.132v9.925c0 1.127-.177 2.183-.567 3.133-.426.915-.958 1.76-1.63 2.43a7.452 7.452 0 0 1-2.377 1.584c-.886.384-1.843.56-2.872.56zm-5.46-7.707c0 1.796.496 3.203 1.453 4.225.992.983 2.34 1.514 4.006 1.514 1.596 0 2.908-.53 3.936-1.515 1.028-1.02 1.524-2.43 1.524-4.224v-9.924c0-1.83-.496-3.203-1.524-4.223-1.028-.985-2.34-1.48-3.936-1.48-1.667 0-3.014.494-4.007 1.48-.96 1.02-1.455 2.393-1.455 4.223v9.925zM20.14 0h1.986v29.915c.036.633.107 1.16.213 1.62.105.49.318.843.566 1.088.284.282.674.425 1.207.425v1.97c-.922 0-1.667-.177-2.2-.562-.53-.388-.92-.88-1.205-1.55-.248-.634-.425-1.408-.497-2.287-.07-.882-.07-1.902-.07-3.027V0zm12.163 22.348h3.476c1.595 0 2.907-.492 3.935-1.478 1.028-.985 1.524-2.217 1.524-3.73 0-1.795-.497-3.132-1.525-4.082-1.028-.916-2.34-1.373-3.936-1.373-1.703 0-3.015.458-4.008 1.373-.958.95-1.454 2.287-1.454 4.082v10.17c0 1.83.496 3.238 1.454 4.225.993 1.02 2.305 1.514 4.007 1.514 1.843 0 3.367-.742 4.538-2.185l1.56 1.02c-.638.987-1.524 1.726-2.624 2.29a7.466 7.466 0 0 1-3.475.844c-1.065 0-2.058-.178-2.944-.528-.922-.388-1.702-.88-2.376-1.548-.674-.67-1.17-1.48-1.56-2.43-.39-.985-.568-2.04-.568-3.202v-9.925c0-1.125.177-2.146.568-3.097.39-.95.886-1.76 1.56-2.428a7.385 7.385 0 0 1 2.376-1.583 7.31 7.31 0 0 1 2.943-.6c1.027 0 1.984.212 2.87.6a7.36 7.36 0 0 1 2.376 1.582 7.286 7.286 0 0 1 1.596 2.428c.426.95.603 1.972.603 3.097 0 .985-.177 1.865-.603 2.71a7.14 7.14 0 0 1-3.971 3.695c-.886.388-1.843.563-2.87.563h-3.477v-2.007zm22.943 8.446c-1.064 0-2.02-.175-2.943-.563a7.375 7.375 0 0 1-2.375-1.583 7.784 7.784 0 0 1-1.56-2.43 8.88 8.88 0 0 1-.568-3.096v-5.736c0-1.16.212-2.217.567-3.132.39-.95.922-1.76 1.56-2.464a6.783 6.783 0 0 1 2.376-1.548 8.091 8.091 0 0 1 2.943-.528c1.17 0 2.27.247 3.298.74 1.028.527 1.88 1.196 2.59 2.076.21-.88.602-1.514 1.17-1.936.53-.422 1.347-.633 2.41-.633v1.97c-.53 0-.957.14-1.206.387-.248.282-.46.633-.567 1.092-.105.49-.176 1.054-.212 1.723v7.989a8.046 8.046 0 0 1-.603 3.097c-.39.95-.958 1.76-1.63 2.428s-1.455 1.196-2.34 1.584c-.924.387-1.88.562-2.91.562zm-5.46 9.433c0 1.582.53 2.922 1.56 3.94 1.028 1.022 2.34 1.55 3.9 1.55 1.702 0 3.05-.528 4.007-1.514.993-1.02 1.49-2.43 1.49-4.224 0-1.478-.498-2.712-1.49-3.73-.958-.985-2.305-1.478-4.007-1.478V32.8c1.064 0 2.057.177 2.98.6.885.387 1.7.914 2.34 1.584.673.667 1.205 1.407 1.56 2.285.39.846.603 1.76.603 2.71 0 1.128-.214 2.183-.604 3.098a7.115 7.115 0 0 1-1.56 2.462c-.64.67-1.455 1.197-2.34 1.585-.923.388-1.916.564-2.98.564-1.028 0-1.985-.212-2.872-.6s-1.667-.952-2.34-1.62a6.885 6.885 0 0 1-1.632-2.358 7.12 7.12 0 0 1-.603-2.885h1.985zm0-17.105c0 1.76.496 3.168 1.488 4.188.957.984 2.305 1.513 3.972 1.513 1.596 0 2.908-.528 3.936-1.513 1.028-1.02 1.56-2.428 1.56-4.188v-5.737c0-1.83-.53-3.203-1.56-4.223-1.028-.985-2.34-1.48-3.936-1.48-1.667 0-3.015.494-3.972 1.48-.993 1.02-1.49 2.393-1.49 4.223v5.737zm33.047-12.318a7.35 7.35 0 0 1 3.476-.844c1.027 0 1.984.176 2.907.528.886.352 1.667.88 2.34 1.583.674.67 1.206 1.48 1.632 2.43.39.915.566 1.97.566 3.132v9.68c0 1.125-.177 2.18-.567 3.13a7.02 7.02 0 0 1-1.562 2.43c-.64.667-1.454 1.197-2.34 1.585-.922.385-1.915.562-2.98.562-1.027 0-1.985-.178-2.872-.563a8.275 8.275 0 0 1-2.375-1.585c-.673-.67-1.205-1.514-1.595-2.43a8.214 8.214 0 0 1-.604-3.13V0h1.987v27.31c0 1.796.532 3.203 1.56 4.225.993.983 2.305 1.514 3.9 1.514 1.703 0 3.015-.53 4.007-1.515.994-1.02 1.454-2.43 1.454-4.224v-9.678c0-1.795-.496-3.203-1.524-4.223-1.028-.987-2.34-1.48-3.936-1.48a6.79 6.79 0 0 0-1.88.28c-.602.177-1.134.424-1.595.775v-2.18zm16.17-.844h1.986v2.534c1.24-1.337 2.658-2.217 4.254-2.604 1.595-.387 3.155-.176 4.68.6v2.322c-.887-.67-1.88-1.09-2.908-1.232s-2.02 0-2.908.387c-.886.423-1.63 1.056-2.233 1.936-.603.915-.887 2.006-.887 3.344v17.527h-1.986V9.96zm17.624 12.388h3.475c1.596 0 2.908-.492 3.936-1.478 1.028-.985 1.525-2.217 1.525-3.73 0-1.795-.497-3.132-1.525-4.082-1.028-.916-2.34-1.373-3.936-1.373-1.667 0-3.014.458-4.007 1.373-.958.95-1.454 2.287-1.454 4.082v10.17c0 1.83.498 3.238 1.455 4.225.993 1.02 2.34 1.514 4.007 1.514 1.88 0 3.37-.742 4.54-2.185l1.595 1.02c-.674.987-1.56 1.726-2.66 2.29a7.466 7.466 0 0 1-3.475.844 8.133 8.133 0 0 1-2.943-.528c-.923-.388-1.703-.88-2.376-1.548a7.784 7.784 0 0 1-1.56-2.43c-.39-.985-.568-2.04-.568-3.202v-9.925c0-1.125.177-2.146.567-3.097.39-.95.922-1.76 1.56-2.428a7.407 7.407 0 0 1 2.376-1.583c.92-.388 1.878-.6 2.942-.6 1.028 0 1.986.212 2.872.6a7.382 7.382 0 0 1 2.376 1.582c.674.67 1.206 1.48 1.63 2.428.39.95.568 1.972.568 3.097 0 .985-.177 1.865-.567 2.71-.424.844-.956 1.584-1.63 2.217s-1.454 1.125-2.376 1.478c-.886.388-1.844.563-2.872.563h-3.475v-2.007zm22.517-1.936c.993.14 1.915.422 2.802.81.886.387 1.632.88 2.305 1.478.64.6 1.136 1.303 1.49 2.077.39.774.567 1.62.567 2.534a8.203 8.203 0 0 1-.603 3.133c-.39.915-.922 1.76-1.63 2.43a7.712 7.712 0 0 1-2.342 1.584c-.887.385-1.88.562-2.872.562-1.063 0-2.057-.178-2.98-.6-.922-.388-1.702-.915-2.34-1.62a7.258 7.258 0 0 1-1.595-2.356 7.629 7.629 0 0 1-.568-2.886h1.985c0 1.62.497 2.92 1.49 3.94.957 1.02 2.305 1.55 4.007 1.55 1.56 0 2.87-.53 3.9-1.513 1.027-1.02 1.56-2.43 1.56-4.224 0-1.407-.532-2.533-1.56-3.343-1.03-.81-2.342-1.337-3.9-1.62a8.24 8.24 0 0 1-2.52-.703 8.172 8.172 0 0 1-2.056-1.302 6.098 6.098 0 0 1-1.384-1.76 4.53 4.53 0 0 1-.53-2.183c0-.986.176-1.9.495-2.746.355-.81.815-1.513 1.42-2.11a6.229 6.229 0 0 1 2.056-1.338 5.975 5.975 0 0 1 2.52-.528c1.382 0 2.623.352 3.758 1.02 1.134.705 2.02 1.585 2.624 2.676l-1.596 1.056a4.67 4.67 0 0 0-1.88-2.006c-.815-.492-1.81-.74-2.907-.74-1.277 0-2.34.423-3.192 1.303-.85.845-1.312 2.006-1.312 3.414 0 .53.142 1.022.425 1.48.25.422.604.844 1.064 1.16.426.353.958.67 1.525.88.604.246 1.17.387 1.774.492zM151.023 0h1.985v27.593c0 .914 0 1.688.035 2.322 0 .633.07 1.16.178 1.62.143.49.32.843.568 1.088.283.282.674.425 1.205.425v1.97c-.922 0-1.667-.177-2.197-.562a3.253 3.253 0 0 1-1.172-1.55c-.283-.634-.425-1.408-.495-2.287a37.85 37.85 0 0 1-.107-3.027V0zm18.971 23.404a5.533 5.533 0 0 0-1.596-.774 6.377 6.377 0 0 0-1.88-.282c-1.596 0-2.907.458-3.936 1.373-1.03.916-1.524 2.113-1.524 3.59 0 1.796.495 3.203 1.524 4.225 1.028.983 2.34 1.514 3.937 1.514 1.7 0 3.012-.53 4.006-1.515.957-1.02 1.453-2.43 1.453-4.224v-9.924c0-1.83-.497-3.203-1.454-4.223-.994-.985-2.306-1.48-4.007-1.48-1.88 0-3.405.74-4.575 2.183l-1.597-.95c.604-.985 1.49-1.76 2.624-2.358 1.135-.563 2.34-.88 3.547-.88 1.062 0 2.056.212 2.94.564.923.352 1.703.88 2.377 1.548.674.704 1.17 1.513 1.56 2.464.39.915.568 1.97.568 3.132v9.925c0 .846.035 1.584.035 2.254 0 .668.07 1.23.213 1.724.106.458.318.846.567 1.09.283.283.674.423 1.17.423v1.974c-1.064 0-1.845-.248-2.375-.704-.532-.493-.923-1.126-1.136-1.936a7.472 7.472 0 0 1-2.555 2.11c-1.027.53-2.126.774-3.367.774-1.03 0-1.987-.177-2.873-.562a7.865 7.865 0 0 1-2.376-1.585c-.674-.67-1.206-1.513-1.597-2.428a8.22 8.22 0 0 1-.604-3.132c0-.95.213-1.83.603-2.675a7.102 7.102 0 0 1 1.596-2.217c.674-.633 1.49-1.126 2.375-1.513a7.712 7.712 0 0 1 2.873-.528c1.276 0 2.41.282 3.475.845v2.182zM180.03 9.96l5.46 22.347 5.496-22.347h2.057l-6.064 24.812H184L177.938 9.96h2.092zm20.07 20.06c.354.774.887 1.373 1.56 1.865.674.493 1.42.844 2.234 1.058.674.174 1.348.174 2.093.034v2.007a7.632 7.632 0 0 1-2.803-.21c-1.063-.283-1.985-.776-2.836-1.446a7.723 7.723 0 0 1-2.057-2.463c-.496-1.02-.744-2.182-.744-3.554V11.93h-1.985V9.96h1.986V0h1.985v9.96H204v1.97h-4.47v15.38c0 1.09.18 1.97.57 2.71zm16.38-9.608c.994.14 1.916.422 2.803.81.852.387 1.63.88 2.27 1.478.64.6 1.17 1.303 1.525 2.077.354.774.53 1.62.53 2.534 0 1.127-.177 2.183-.566 3.133-.426.915-.958 1.76-1.63 2.43a7.457 7.457 0 0 1-2.378 1.584c-.887.385-1.843.562-2.872.562-1.063 0-2.057-.178-2.943-.6a6.93 6.93 0 0 1-2.376-1.62c-.674-.666-1.17-1.44-1.56-2.356-.39-.88-.568-1.83-.568-2.886h1.985c0 1.62.498 2.92 1.455 3.94.994 1.02 2.305 1.55 4.007 1.55 1.596 0 2.908-.53 3.937-1.513 1.027-1.02 1.523-2.43 1.523-4.224 0-1.407-.496-2.533-1.524-3.343-1.03-.81-2.342-1.337-3.938-1.62-.887-.104-1.737-.35-2.518-.703s-1.453-.774-2.02-1.302c-.567-.493-1.064-1.092-1.384-1.76a4.53 4.53 0 0 1-.53-2.183c0-.986.176-1.9.496-2.746.318-.81.78-1.513 1.382-2.11a6.65 6.65 0 0 1 2.057-1.338 6.085 6.085 0 0 1 2.518-.528c1.384 0 2.66.352 3.795 1.02 1.1.705 1.985 1.585 2.624 2.676l-1.596 1.056a4.901 4.901 0 0 0-1.88-2.006c-.85-.492-1.808-.74-2.943-.74-1.24 0-2.304.423-3.19 1.303-.852.845-1.277 2.006-1.277 3.414 0 .53.143 1.022.39 1.48.284.422.64.844 1.065 1.16.46.353.957.67 1.56.88.565.246 1.17.387 1.77.492zm15.107 1.936h3.476c1.56 0 2.872-.492 3.9-1.478 1.028-.985 1.56-2.217 1.56-3.73 0-1.795-.53-3.132-1.56-4.082-1.028-.916-2.34-1.373-3.9-1.373-1.702 0-3.05.458-4.008 1.373-.992.95-1.488 2.287-1.488 4.082v10.17c0 1.83.496 3.238 1.488 4.225.958 1.02 2.306 1.514 4.008 1.514 1.844 0 3.334-.742 4.504-2.185l1.595 1.02c-.673.987-1.524 1.726-2.624 2.29-1.1.562-2.27.844-3.475.844a8.335 8.335 0 0 1-2.98-.528c-.886-.388-1.7-.88-2.34-1.548a6.713 6.713 0 0 1-1.56-2.43 8.58 8.58 0 0 1-.603-3.202v-9.925c0-1.125.212-2.146.602-3.097.356-.95.887-1.76 1.562-2.428.638-.668 1.453-1.196 2.34-1.583a7.61 7.61 0 0 1 2.98-.6c1.027 0 1.984.212 2.87.6s1.668.915 2.377 1.582c.676.67 1.206 1.48 1.597 2.428.39.95.603 1.972.603 3.097 0 .985-.213 1.865-.603 2.71a7.066 7.066 0 0 1-1.596 2.217 7.912 7.912 0 0 1-2.375 1.478c-.887.388-1.844.563-2.872.563h-3.476v-2.007zM247.19 9.96l5.46 22.347 5.46-22.347h2.093l-6.063 24.812h-2.98L245.1 9.96h2.092z"/><style>g{fill:#c399cc}g:target{fill:#222}</style></svg>