<svg xmlns="http://www.w3.org/2000/svg" viewBox="0 0 260 48"><g id="normal"><path d="M7.446 35.018c-1.064 0-2.021-.177-2.943-.562-.922-.388-1.703-.918-2.376-1.585-.638-.67-1.17-1.514-1.56-2.429-.39-.95-.567-2.005-.567-3.131v-9.925c0-1.161.177-2.217.567-3.132.39-.951.921-1.76 1.56-2.464.674-.668 1.454-1.196 2.376-1.548.921-.352 1.879-.528 2.943-.528 1.028 0 1.986.176 2.872.528.922.352 1.702.88 2.376 1.548.673.704 1.205 1.513 1.631 2.464.39.915.567 1.971.567 3.132v9.925c0 1.126-.177 2.182-.567 3.132-.426.915-.958 1.759-1.631 2.429-.674.667-1.454 1.197-2.376 1.585-.886.384-1.843.561-2.872.561zm-5.461-7.707c0 1.795.497 3.202 1.454 4.224.993.983 2.34 1.514 4.007 1.514 1.596 0 2.908-.53 3.936-1.514 1.028-1.021 1.524-2.429 1.524-4.224v-9.925c0-1.83-.496-3.203-1.524-4.223-1.028-.985-2.34-1.479-3.936-1.479-1.667 0-3.014.493-4.007 1.479-.958 1.02-1.454 2.393-1.454 4.223v9.925zM20.141 0h1.985v29.915c.036.633.107 1.161.213 1.619.106.491.319.844.567 1.089.284.282.674.425 1.207.425v1.97c-.922 0-1.667-.177-2.199-.562-.531-.388-.921-.881-1.206-1.551-.248-.633-.425-1.407-.497-2.286-.07-.881-.07-1.901-.07-3.026v-27.593zM32.303 22.348h3.476c1.596 0 2.908-.492 3.936-1.478 1.028-.985 1.524-2.217 1.524-3.73 0-1.795-.496-3.132-1.524-4.082-1.028-.916-2.34-1.373-3.936-1.373-1.702 0-3.014.458-4.007 1.373-.958.95-1.454 2.287-1.454 4.082v10.171c0 1.829.496 3.237 1.454 4.224.993 1.021 2.305 1.514 4.007 1.514 1.844 0 3.368-.741 4.539-2.184l1.56 1.021c-.638.986-1.524 1.725-2.624 2.289-1.1.562-2.234.844-3.475.844-1.064 0-2.057-.177-2.943-.527-.922-.388-1.702-.881-2.376-1.548-.674-.67-1.17-1.479-1.56-2.43-.391-.985-.568-2.041-.568-3.202v-9.925c0-1.125.177-2.146.568-3.097.39-.95.886-1.759 1.56-2.428.674-.668 1.454-1.196 2.376-1.583.886-.387 1.879-.598 2.943-.598 1.028 0 1.985.211 2.872.598.922.387 1.702.916 2.375 1.583.674.669 1.206 1.479 1.596 2.428.426.951.603 1.972.603 3.097 0 .985-.177 1.865-.603 2.71-.39.844-.922 1.584-1.596 2.217-.673.633-1.454 1.125-2.375 1.478-.887.388-1.844.563-2.872.563h-3.476v-2.007zM55.246 30.794c-1.064 0-2.021-.175-2.943-.563-.921-.388-1.702-.915-2.375-1.584-.638-.669-1.17-1.479-1.561-2.429-.354-.95-.567-2.005-.567-3.097v-5.737c0-1.161.212-2.217.567-3.132.39-.951.922-1.76 1.561-2.464.673-.668 1.454-1.196 2.375-1.548.922-.352 1.879-.528 2.943-.528 1.17 0 2.27.247 3.298.739 1.028.528 1.879 1.197 2.589 2.077.212-.88.603-1.514 1.17-1.936.532-.422 1.348-.633 2.411-.633v1.971c-.531 0-.957.14-1.206.387-.248.282-.461.633-.567 1.092-.106.492-.177 1.055-.213 1.724v7.989c0 1.126-.213 2.146-.603 3.097-.39.95-.958 1.76-1.631 2.429s-1.454 1.196-2.34 1.584c-.923.387-1.88.562-2.908.562zm-5.461 9.433c0 1.582.532 2.922 1.561 3.941 1.028 1.021 2.34 1.548 3.9 1.548 1.702 0 3.049-.527 4.007-1.513.993-1.021 1.489-2.429 1.489-4.224 0-1.477-.497-2.711-1.489-3.73-.958-.984-2.305-1.477-4.007-1.477v-1.972c1.064 0 2.057.177 2.979.599.886.388 1.701.915 2.34 1.585.674.667 1.206 1.407 1.561 2.285.39.847.603 1.762.603 2.711 0 1.128-.213 2.183-.603 3.098-.354.949-.887 1.761-1.561 2.462-.639.67-1.454 1.197-2.34 1.585-.922.388-1.915.564-2.979.564-1.028 0-1.985-.211-2.872-.599s-1.667-.952-2.341-1.619c-.709-.67-1.241-1.444-1.631-2.359-.39-.878-.603-1.864-.603-2.885h1.986zm0-17.105c0 1.76.497 3.168 1.489 4.188.957.984 2.305 1.513 3.972 1.513 1.596 0 2.908-.528 3.936-1.513 1.028-1.021 1.561-2.428 1.561-4.188v-5.737c0-1.83-.532-3.203-1.561-4.223-1.028-.985-2.34-1.479-3.936-1.479-1.667 0-3.015.493-3.972 1.479-.993 1.02-1.489 2.393-1.489 4.223v5.737zM82.833 10.804c1.064-.563 2.234-.844 3.476-.844 1.028 0 1.985.176 2.908.528.886.352 1.667.88 2.34 1.583.674.669 1.206 1.479 1.632 2.429.39.915.567 1.971.567 3.132v9.679c0 1.126-.177 2.182-.567 3.132-.355.915-.887 1.759-1.561 2.429-.639.667-1.454 1.197-2.341 1.585-.921.385-1.914.562-2.978.562-1.028 0-1.986-.177-2.873-.562-.886-.388-1.667-.918-2.375-1.585-.674-.67-1.206-1.514-1.596-2.429-.391-.95-.604-2.006-.604-3.132v-27.311h1.986v27.311c0 1.795.532 3.202 1.56 4.224.993.983 2.305 1.514 3.901 1.514 1.702 0 3.014-.53 4.006-1.514.994-1.021 1.454-2.429 1.454-4.224v-9.679c0-1.795-.496-3.203-1.524-4.223-1.028-.986-2.341-1.479-3.936-1.479-.638 0-1.277.105-1.879.281-.603.176-1.135.423-1.596.774v-2.181zM99.003 9.96h1.986v2.534c1.241-1.337 2.659-2.217 4.255-2.604 1.595-.387 3.155-.176 4.68.599v2.323c-.887-.669-1.879-1.091-2.908-1.232s-2.021 0-2.908.387c-.886.423-1.631 1.056-2.233 1.936-.603.915-.887 2.006-.887 3.344v17.527h-1.986v-24.814h.001zM116.627 22.348h3.475c1.596 0 2.908-.492 3.936-1.478 1.028-.985 1.525-2.217 1.525-3.73 0-1.795-.497-3.132-1.525-4.082-1.028-.916-2.34-1.373-3.936-1.373-1.667 0-3.014.458-4.007 1.373-.958.95-1.454 2.287-1.454 4.082v10.171c0 1.829.497 3.237 1.454 4.224.993 1.021 2.34 1.514 4.007 1.514 1.879 0 3.369-.741 4.539-2.184l1.596 1.021c-.674.986-1.561 1.725-2.66 2.289-1.099.562-2.234.844-3.475.844-1.064 0-2.021-.177-2.943-.527-.922-.388-1.702-.881-2.375-1.548-.638-.67-1.17-1.479-1.561-2.43-.39-.985-.567-2.041-.567-3.202v-9.925c0-1.125.177-2.146.567-3.097.39-.95.922-1.759 1.561-2.428.674-.668 1.454-1.196 2.375-1.583.922-.387 1.879-.598 2.943-.598 1.028 0 1.986.211 2.872.598.922.387 1.702.916 2.376 1.583.674.669 1.206 1.479 1.631 2.428.39.951.567 1.972.567 3.097 0 .985-.177 1.865-.567 2.71-.425.844-.957 1.584-1.631 2.217s-1.454 1.125-2.376 1.478c-.886.388-1.844.563-2.872.563h-3.475v-2.007zM139.144 20.412c.993.141 1.915.422 2.802.81.886.387 1.632.88 2.305 1.478.639.599 1.135 1.303 1.489 2.077.391.774.567 1.619.567 2.534 0 1.126-.212 2.182-.603 3.132-.39.915-.922 1.759-1.631 2.429-.675.667-1.454 1.197-2.341 1.585-.887.385-1.879.562-2.872.562-1.063 0-2.057-.177-2.979-.599-.923-.388-1.703-.915-2.341-1.619-.674-.667-1.205-1.442-1.595-2.357-.354-.879-.568-1.83-.568-2.886h1.985c0 1.619.497 2.921 1.49 3.941.957 1.02 2.305 1.55 4.007 1.55 1.56 0 2.872-.53 3.9-1.514 1.028-1.021 1.561-2.429 1.561-4.224 0-1.408-.532-2.534-1.561-3.344-1.028-.81-2.341-1.337-3.9-1.619-.923-.105-1.738-.352-2.518-.704-.78-.352-1.453-.774-2.057-1.302-.568-.493-1.029-1.092-1.384-1.76-.354-.669-.531-1.373-.531-2.183 0-.985.177-1.9.496-2.745.355-.81.815-1.513 1.419-2.111.567-.563 1.276-1.021 2.057-1.337.779-.352 1.595-.528 2.518-.528 1.383 0 2.624.352 3.759 1.021 1.134.704 2.021 1.584 2.624 2.675l-1.596 1.056c-.425-.844-1.028-1.513-1.88-2.006-.815-.492-1.809-.739-2.907-.739-1.276 0-2.34.422-3.191 1.302-.851.845-1.312 2.006-1.312 3.414 0 .528.142 1.021.425 1.479.248.422.603.844 1.063 1.161.426.352.958.668 1.525.88.605.245 1.172.386 1.775.491zM151.023 0h1.985v27.593c0 .914 0 1.688.035 2.322 0 .633.071 1.161.178 1.619.142.491.319.844.567 1.089.283.282.674.425 1.205.425v1.97c-.922 0-1.667-.177-2.197-.562-.532-.388-.923-.881-1.172-1.551-.283-.633-.425-1.407-.495-2.286-.071-.881-.106-1.901-.106-3.026v-27.593zM169.994 23.404c-.462-.317-.992-.599-1.596-.774-.568-.176-1.206-.282-1.879-.282-1.597 0-2.908.458-3.937 1.373s-1.524 2.112-1.524 3.59c0 1.795.495 3.202 1.524 4.224 1.028.983 2.34 1.514 3.937 1.514 1.701 0 3.013-.53 4.007-1.514.957-1.021 1.453-2.429 1.453-4.224v-9.925c0-1.83-.496-3.203-1.453-4.223-.994-.985-2.306-1.479-4.007-1.479-1.88 0-3.404.739-4.574 2.182l-1.597-.95c.604-.985 1.49-1.76 2.624-2.358 1.135-.563 2.34-.879 3.547-.879 1.063 0 2.057.211 2.941.563.923.352 1.703.88 2.377 1.548.674.704 1.17 1.513 1.561 2.464.39.915.567 1.971.567 3.132v9.925c0 .845.035 1.583.035 2.253 0 .668.07 1.23.213 1.724.106.458.318.846.567 1.091.283.282.674.422 1.17.422v1.973c-1.064 0-1.845-.248-2.375-.704-.532-.493-.923-1.126-1.136-1.936-.674.878-1.524 1.582-2.554 2.109-1.027.53-2.126.775-3.367.775-1.029 0-1.987-.177-2.873-.562-.886-.388-1.701-.918-2.376-1.585-.673-.67-1.205-1.514-1.596-2.429-.39-.95-.604-2.006-.604-3.132 0-.95.214-1.83.604-2.675.391-.845.923-1.584 1.596-2.217.675-.633 1.49-1.126 2.376-1.513.886-.352 1.844-.528 2.873-.528 1.276 0 2.411.282 3.475.845v2.182h.001z"/><polygon points="180.029,9.96 185.49,32.307 190.986,9.96 193.043,9.96 186.979,34.772 184.001,34.772 177.937,9.96 180.029,9.96"/><path d="M200.1 30.021c.354.773.887 1.372 1.56 1.864.674.493 1.419.844 2.234 1.058.674.174 1.348.174 2.093.034v2.007c-.923.105-1.881.034-2.803-.211-1.063-.282-1.985-.775-2.836-1.445-.852-.667-1.524-1.477-2.057-2.463-.497-1.021-.745-2.182-.745-3.554v-15.38h-1.985v-1.971h1.985v-9.96h1.985v9.96h4.468v1.971h-4.468v15.38c0 1.09.178 1.97.569 2.71zM216.481 20.412c.993.141 1.915.422 2.802.81.852.387 1.631.88 2.269 1.478.64.599 1.17 1.303 1.526 2.077.354.774.53 1.619.53 2.534 0 1.126-.177 2.182-.566 3.132-.426.915-.958 1.759-1.631 2.429-.675.667-1.454 1.197-2.377 1.585-.887.385-1.843.562-2.872.562-1.063 0-2.057-.177-2.943-.599-.921-.388-1.702-.915-2.375-1.619-.674-.667-1.17-1.442-1.561-2.357-.39-.879-.567-1.83-.567-2.886h1.985c0 1.619.497 2.921 1.454 3.941.994 1.02 2.305 1.55 4.007 1.55 1.596 0 2.908-.53 3.937-1.514 1.028-1.021 1.524-2.429 1.524-4.224 0-1.408-.496-2.534-1.524-3.344s-2.341-1.337-3.937-1.619c-.887-.105-1.737-.352-2.518-.704s-1.453-.774-2.021-1.302c-.566-.493-1.063-1.092-1.383-1.76-.354-.669-.531-1.373-.531-2.183 0-.985.177-1.9.497-2.745.318-.81.779-1.513 1.382-2.111.604-.563 1.276-1.021 2.057-1.337.78-.352 1.631-.528 2.518-.528 1.384 0 2.66.352 3.795 1.021 1.099.704 1.985 1.584 2.624 2.675l-1.596 1.056c-.426-.844-1.064-1.513-1.88-2.006-.851-.492-1.808-.739-2.943-.739-1.241 0-2.304.422-3.19 1.302-.852.845-1.277 2.006-1.277 3.414 0 .528.143 1.021.391 1.479.283.422.639.844 1.064 1.161.46.352.956.668 1.56.88.564.245 1.168.386 1.77.491zM231.587 22.348h3.476c1.561 0 2.872-.492 3.9-1.478 1.028-.985 1.561-2.217 1.561-3.73 0-1.795-.532-3.132-1.561-4.082-1.028-.916-2.34-1.373-3.9-1.373-1.702 0-3.05.458-4.008 1.373-.992.95-1.488 2.287-1.488 4.082v10.171c0 1.829.496 3.237 1.488 4.224.958 1.021 2.306 1.514 4.008 1.514 1.844 0 3.334-.741 4.504-2.184l1.595 1.021c-.673.986-1.524 1.725-2.624 2.289-1.099.562-2.269.844-3.475.844-1.064 0-2.057-.177-2.979-.527-.887-.388-1.702-.881-2.34-1.548-.675-.67-1.205-1.479-1.562-2.43-.39-.985-.602-2.041-.602-3.202v-9.925c0-1.125.212-2.146.602-3.097.356-.95.887-1.759 1.562-2.428.638-.668 1.453-1.196 2.34-1.583.922-.387 1.914-.598 2.979-.598 1.028 0 1.985.211 2.872.598s1.667.916 2.376 1.583c.675.669 1.205 1.479 1.596 2.428.39.951.603 1.972.603 3.097 0 .985-.213 1.865-.603 2.71-.391.844-.921 1.584-1.596 2.217-.709.633-1.489 1.125-2.376 1.478-.887.388-1.844.563-2.872.563h-3.476v-2.007z"/><polygon points="247.19,9.96 252.651,32.307 258.111,9.96 260.203,9.96 254.14,34.772 251.161,34.772 245.098,9.96 247.19,9.96"/></g><style>g { fill:#c399cc; } g:target { fill:#222; }</style></svg>